<mxfile host="app.diagrams.net" modified="2023-11-16T17:10:33.274Z" agent="Mozilla/5.0 (Macintosh; Intel Mac OS X 10_15_7) AppleWebKit/537.36 (KHTML, like Gecko) Chrome/119.0.0.0 Safari/537.36" etag="BFACR13IaVqJUbdekPmh" version="21.8.2" type="github">
  <diagram id="C5RBs43oDa-KdzZeNtuy" name="Page-1">
    <mxGraphModel dx="1270" dy="816" grid="1" gridSize="10" guides="1" tooltips="1" connect="1" arrows="1" fold="1" page="1" pageScale="1" pageWidth="827" pageHeight="1169" background="#FFFFFF" math="0" shadow="0">
      <root>
        <mxCell id="WIyWlLk6GJQsqaUBKTNV-0" />
        <mxCell id="WIyWlLk6GJQsqaUBKTNV-1" parent="WIyWlLk6GJQsqaUBKTNV-0" />
        <mxCell id="sXSF4Zg0YILGbZPlJULw-0" value="&lt;font style=&quot;font-size: 20px;&quot;&gt;初期画面&lt;/font&gt;" style="rounded=1;whiteSpace=wrap;html=1;" vertex="1" parent="WIyWlLk6GJQsqaUBKTNV-1">
          <mxGeometry x="360" y="70" width="150" height="70" as="geometry" />
        </mxCell>
        <mxCell id="sXSF4Zg0YILGbZPlJULw-1" value="&lt;font style=&quot;font-size: 20px;&quot;&gt;ログイン&lt;/font&gt;" style="rounded=1;whiteSpace=wrap;html=1;" vertex="1" parent="WIyWlLk6GJQsqaUBKTNV-1">
          <mxGeometry x="340" y="230" width="150" height="70" as="geometry" />
        </mxCell>
        <mxCell id="sXSF4Zg0YILGbZPlJULw-2" value="&lt;font style=&quot;font-size: 20px;&quot;&gt;ユーザー登録&lt;/font&gt;" style="rounded=1;whiteSpace=wrap;html=1;" vertex="1" parent="WIyWlLk6GJQsqaUBKTNV-1">
          <mxGeometry x="580" y="270" width="150" height="70" as="geometry" />
        </mxCell>
        <mxCell id="sXSF4Zg0YILGbZPlJULw-3" value="&lt;font style=&quot;font-size: 20px;&quot;&gt;タスク一覧&lt;/font&gt;" style="rounded=1;whiteSpace=wrap;html=1;" vertex="1" parent="WIyWlLk6GJQsqaUBKTNV-1">
          <mxGeometry x="100" y="270" width="150" height="70" as="geometry" />
        </mxCell>
        <mxCell id="sXSF4Zg0YILGbZPlJULw-4" value="&lt;font style=&quot;font-size: 20px;&quot;&gt;ユーザー編集&lt;br&gt;&lt;/font&gt;" style="rounded=1;whiteSpace=wrap;html=1;" vertex="1" parent="WIyWlLk6GJQsqaUBKTNV-1">
          <mxGeometry y="460" width="150" height="70" as="geometry" />
        </mxCell>
        <mxCell id="sXSF4Zg0YILGbZPlJULw-5" value="&lt;font style=&quot;font-size: 20px;&quot;&gt;タスク生成&lt;/font&gt;" style="rounded=1;whiteSpace=wrap;html=1;" vertex="1" parent="WIyWlLk6GJQsqaUBKTNV-1">
          <mxGeometry x="210" y="460" width="150" height="70" as="geometry" />
        </mxCell>
        <mxCell id="sXSF4Zg0YILGbZPlJULw-6" value="&lt;font style=&quot;font-size: 20px;&quot;&gt;タスク詳細&lt;/font&gt;" style="rounded=1;whiteSpace=wrap;html=1;" vertex="1" parent="WIyWlLk6GJQsqaUBKTNV-1">
          <mxGeometry x="440" y="450" width="150" height="70" as="geometry" />
        </mxCell>
        <mxCell id="sXSF4Zg0YILGbZPlJULw-7" value="&lt;span style=&quot;font-size: 20px;&quot;&gt;タスク編集&lt;br&gt;&lt;/span&gt;" style="rounded=1;whiteSpace=wrap;html=1;" vertex="1" parent="WIyWlLk6GJQsqaUBKTNV-1">
          <mxGeometry x="339" y="630" width="150" height="70" as="geometry" />
        </mxCell>
        <mxCell id="sXSF4Zg0YILGbZPlJULw-8" value="&lt;font style=&quot;font-size: 20px;&quot;&gt;アクセス権付与&lt;/font&gt;" style="rounded=1;whiteSpace=wrap;html=1;" vertex="1" parent="WIyWlLk6GJQsqaUBKTNV-1">
          <mxGeometry x="590" y="630" width="150" height="70" as="geometry" />
        </mxCell>
        <mxCell id="sXSF4Zg0YILGbZPlJULw-9" value="" style="endArrow=classic;html=1;rounded=0;exitX=0.537;exitY=1.032;exitDx=0;exitDy=0;exitPerimeter=0;entryX=0.677;entryY=-0.051;entryDx=0;entryDy=0;entryPerimeter=0;strokeWidth=2;" edge="1" parent="WIyWlLk6GJQsqaUBKTNV-1" source="sXSF4Zg0YILGbZPlJULw-0" target="sXSF4Zg0YILGbZPlJULw-1">
          <mxGeometry width="50" height="50" relative="1" as="geometry">
            <mxPoint x="480" y="370" as="sourcePoint" />
            <mxPoint x="530" y="320" as="targetPoint" />
          </mxGeometry>
        </mxCell>
        <mxCell id="sXSF4Zg0YILGbZPlJULw-10" value="" style="endArrow=classic;html=1;rounded=0;exitX=0.75;exitY=1;exitDx=0;exitDy=0;entryX=0.392;entryY=-0.015;entryDx=0;entryDy=0;entryPerimeter=0;strokeWidth=2;" edge="1" parent="WIyWlLk6GJQsqaUBKTNV-1" source="sXSF4Zg0YILGbZPlJULw-0" target="sXSF4Zg0YILGbZPlJULw-2">
          <mxGeometry width="50" height="50" relative="1" as="geometry">
            <mxPoint x="451" y="152" as="sourcePoint" />
            <mxPoint x="451" y="276" as="targetPoint" />
          </mxGeometry>
        </mxCell>
        <mxCell id="sXSF4Zg0YILGbZPlJULw-11" value="" style="endArrow=classic;html=1;rounded=0;exitX=0.25;exitY=1;exitDx=0;exitDy=0;strokeWidth=2;" edge="1" parent="WIyWlLk6GJQsqaUBKTNV-1" source="sXSF4Zg0YILGbZPlJULw-0" target="sXSF4Zg0YILGbZPlJULw-3">
          <mxGeometry width="50" height="50" relative="1" as="geometry">
            <mxPoint x="461" y="162" as="sourcePoint" />
            <mxPoint x="461" y="286" as="targetPoint" />
          </mxGeometry>
        </mxCell>
        <mxCell id="sXSF4Zg0YILGbZPlJULw-12" value="" style="endArrow=classic;html=1;rounded=0;exitX=1;exitY=0.5;exitDx=0;exitDy=0;strokeWidth=2;entryX=0;entryY=0.5;entryDx=0;entryDy=0;" edge="1" parent="WIyWlLk6GJQsqaUBKTNV-1" source="sXSF4Zg0YILGbZPlJULw-1" target="sXSF4Zg0YILGbZPlJULw-2">
          <mxGeometry width="50" height="50" relative="1" as="geometry">
            <mxPoint x="471" y="172" as="sourcePoint" />
            <mxPoint x="490" y="300" as="targetPoint" />
          </mxGeometry>
        </mxCell>
        <mxCell id="sXSF4Zg0YILGbZPlJULw-13" value="" style="endArrow=classic;html=1;rounded=0;exitX=0;exitY=0.5;exitDx=0;exitDy=0;entryX=1;entryY=0.5;entryDx=0;entryDy=0;strokeWidth=2;" edge="1" parent="WIyWlLk6GJQsqaUBKTNV-1" source="sXSF4Zg0YILGbZPlJULw-1" target="sXSF4Zg0YILGbZPlJULw-3">
          <mxGeometry width="50" height="50" relative="1" as="geometry">
            <mxPoint x="481" y="182" as="sourcePoint" />
            <mxPoint x="481" y="306" as="targetPoint" />
          </mxGeometry>
        </mxCell>
        <mxCell id="sXSF4Zg0YILGbZPlJULw-14" value="" style="endArrow=classic;html=1;rounded=0;exitX=0.25;exitY=1;exitDx=0;exitDy=0;strokeWidth=2;entryX=0.35;entryY=-0.043;entryDx=0;entryDy=0;entryPerimeter=0;" edge="1" parent="WIyWlLk6GJQsqaUBKTNV-1" source="sXSF4Zg0YILGbZPlJULw-3" target="sXSF4Zg0YILGbZPlJULw-4">
          <mxGeometry width="50" height="50" relative="1" as="geometry">
            <mxPoint x="408" y="150" as="sourcePoint" />
            <mxPoint x="232" y="280" as="targetPoint" />
          </mxGeometry>
        </mxCell>
        <mxCell id="sXSF4Zg0YILGbZPlJULw-15" value="" style="endArrow=classic;html=1;rounded=0;strokeWidth=2;entryX=0.337;entryY=1.071;entryDx=0;entryDy=0;entryPerimeter=0;exitX=0.497;exitY=-0.086;exitDx=0;exitDy=0;exitPerimeter=0;" edge="1" parent="WIyWlLk6GJQsqaUBKTNV-1" source="sXSF4Zg0YILGbZPlJULw-4" target="sXSF4Zg0YILGbZPlJULw-3">
          <mxGeometry width="50" height="50" relative="1" as="geometry">
            <mxPoint x="418" y="160" as="sourcePoint" />
            <mxPoint x="242" y="290" as="targetPoint" />
          </mxGeometry>
        </mxCell>
        <mxCell id="sXSF4Zg0YILGbZPlJULw-16" value="" style="endArrow=classic;html=1;rounded=0;exitX=0.75;exitY=1;exitDx=0;exitDy=0;strokeWidth=2;entryX=0.25;entryY=0;entryDx=0;entryDy=0;" edge="1" parent="WIyWlLk6GJQsqaUBKTNV-1" source="sXSF4Zg0YILGbZPlJULw-3" target="sXSF4Zg0YILGbZPlJULw-5">
          <mxGeometry width="50" height="50" relative="1" as="geometry">
            <mxPoint x="148" y="350" as="sourcePoint" />
            <mxPoint x="63" y="467" as="targetPoint" />
          </mxGeometry>
        </mxCell>
        <mxCell id="sXSF4Zg0YILGbZPlJULw-17" value="" style="endArrow=classic;html=1;rounded=0;exitX=0.358;exitY=-0.01;exitDx=0;exitDy=0;strokeWidth=2;entryX=0.844;entryY=1.033;entryDx=0;entryDy=0;exitPerimeter=0;entryPerimeter=0;" edge="1" parent="WIyWlLk6GJQsqaUBKTNV-1" source="sXSF4Zg0YILGbZPlJULw-5" target="sXSF4Zg0YILGbZPlJULw-3">
          <mxGeometry width="50" height="50" relative="1" as="geometry">
            <mxPoint x="223" y="350" as="sourcePoint" />
            <mxPoint x="258" y="470" as="targetPoint" />
          </mxGeometry>
        </mxCell>
        <mxCell id="sXSF4Zg0YILGbZPlJULw-18" value="" style="endArrow=classic;html=1;rounded=0;exitX=0.958;exitY=1.022;exitDx=0;exitDy=0;strokeWidth=2;entryX=0.074;entryY=-0.025;entryDx=0;entryDy=0;exitPerimeter=0;entryPerimeter=0;" edge="1" parent="WIyWlLk6GJQsqaUBKTNV-1" source="sXSF4Zg0YILGbZPlJULw-3" target="sXSF4Zg0YILGbZPlJULw-6">
          <mxGeometry width="50" height="50" relative="1" as="geometry">
            <mxPoint x="223" y="350" as="sourcePoint" />
            <mxPoint x="258" y="470" as="targetPoint" />
          </mxGeometry>
        </mxCell>
        <mxCell id="sXSF4Zg0YILGbZPlJULw-19" value="" style="endArrow=classic;html=1;rounded=0;exitX=0.207;exitY=-0.004;exitDx=0;exitDy=0;strokeWidth=2;entryX=1.007;entryY=0.916;entryDx=0;entryDy=0;exitPerimeter=0;entryPerimeter=0;" edge="1" parent="WIyWlLk6GJQsqaUBKTNV-1" source="sXSF4Zg0YILGbZPlJULw-6" target="sXSF4Zg0YILGbZPlJULw-3">
          <mxGeometry width="50" height="50" relative="1" as="geometry">
            <mxPoint x="254" y="352" as="sourcePoint" />
            <mxPoint x="461" y="458" as="targetPoint" />
          </mxGeometry>
        </mxCell>
        <mxCell id="sXSF4Zg0YILGbZPlJULw-21" value="" style="endArrow=classic;html=1;rounded=0;strokeWidth=2;exitX=0.164;exitY=1.063;exitDx=0;exitDy=0;exitPerimeter=0;" edge="1" parent="WIyWlLk6GJQsqaUBKTNV-1" source="sXSF4Zg0YILGbZPlJULw-6" target="sXSF4Zg0YILGbZPlJULw-7">
          <mxGeometry width="50" height="50" relative="1" as="geometry">
            <mxPoint x="480" y="530" as="sourcePoint" />
            <mxPoint x="461" y="458" as="targetPoint" />
          </mxGeometry>
        </mxCell>
        <mxCell id="sXSF4Zg0YILGbZPlJULw-22" value="" style="endArrow=classic;html=1;rounded=0;strokeWidth=2;entryX=0.25;entryY=1;entryDx=0;entryDy=0;exitX=0.709;exitY=0.011;exitDx=0;exitDy=0;exitPerimeter=0;" edge="1" parent="WIyWlLk6GJQsqaUBKTNV-1" source="sXSF4Zg0YILGbZPlJULw-7" target="sXSF4Zg0YILGbZPlJULw-6">
          <mxGeometry width="50" height="50" relative="1" as="geometry">
            <mxPoint x="440" y="620" as="sourcePoint" />
            <mxPoint x="437" y="640" as="targetPoint" />
          </mxGeometry>
        </mxCell>
        <mxCell id="sXSF4Zg0YILGbZPlJULw-23" value="" style="endArrow=classic;html=1;rounded=0;strokeWidth=2;exitX=0.633;exitY=1.017;exitDx=0;exitDy=0;exitPerimeter=0;entryX=0.161;entryY=0.023;entryDx=0;entryDy=0;entryPerimeter=0;" edge="1" parent="WIyWlLk6GJQsqaUBKTNV-1" source="sXSF4Zg0YILGbZPlJULw-6" target="sXSF4Zg0YILGbZPlJULw-8">
          <mxGeometry width="50" height="50" relative="1" as="geometry">
            <mxPoint x="475" y="534" as="sourcePoint" />
            <mxPoint x="437" y="640" as="targetPoint" />
          </mxGeometry>
        </mxCell>
        <mxCell id="sXSF4Zg0YILGbZPlJULw-24" value="" style="endArrow=classic;html=1;rounded=0;strokeWidth=2;entryX=0.75;entryY=1;entryDx=0;entryDy=0;exitX=0.239;exitY=-0.069;exitDx=0;exitDy=0;exitPerimeter=0;" edge="1" parent="WIyWlLk6GJQsqaUBKTNV-1" source="sXSF4Zg0YILGbZPlJULw-8" target="sXSF4Zg0YILGbZPlJULw-6">
          <mxGeometry width="50" height="50" relative="1" as="geometry">
            <mxPoint x="455" y="641" as="sourcePoint" />
            <mxPoint x="488" y="530" as="targetPoint" />
          </mxGeometry>
        </mxCell>
        <mxCell id="sXSF4Zg0YILGbZPlJULw-25" value="index.html" style="text;html=1;align=center;verticalAlign=middle;whiteSpace=wrap;rounded=0;fontColor=#FF0000;" vertex="1" parent="WIyWlLk6GJQsqaUBKTNV-1">
          <mxGeometry x="370" y="120" width="130" height="20" as="geometry" />
        </mxCell>
        <mxCell id="sXSF4Zg0YILGbZPlJULw-26" value="login.html" style="text;html=1;align=center;verticalAlign=middle;whiteSpace=wrap;rounded=0;fontColor=#FF0000;" vertex="1" parent="WIyWlLk6GJQsqaUBKTNV-1">
          <mxGeometry x="349" y="280" width="130" height="20" as="geometry" />
        </mxCell>
        <mxCell id="sXSF4Zg0YILGbZPlJULw-27" value="form_new_user.html" style="text;html=1;align=center;verticalAlign=middle;whiteSpace=wrap;rounded=0;fontColor=#FF0000;" vertex="1" parent="WIyWlLk6GJQsqaUBKTNV-1">
          <mxGeometry x="590" y="320" width="130" height="20" as="geometry" />
        </mxCell>
        <mxCell id="sXSF4Zg0YILGbZPlJULw-28" value="task_list.html" style="text;html=1;align=center;verticalAlign=middle;whiteSpace=wrap;rounded=0;fontColor=#FF0000;" vertex="1" parent="WIyWlLk6GJQsqaUBKTNV-1">
          <mxGeometry x="110" y="320" width="130" height="20" as="geometry" />
        </mxCell>
        <mxCell id="sXSF4Zg0YILGbZPlJULw-29" value="form_edit_user.html" style="text;html=1;align=center;verticalAlign=middle;whiteSpace=wrap;rounded=0;fontColor=#FF0000;" vertex="1" parent="WIyWlLk6GJQsqaUBKTNV-1">
          <mxGeometry x="10" y="510" width="130" height="20" as="geometry" />
        </mxCell>
        <mxCell id="sXSF4Zg0YILGbZPlJULw-30" value="form_new_task.html" style="text;html=1;align=center;verticalAlign=middle;whiteSpace=wrap;rounded=0;fontColor=#FF0000;" vertex="1" parent="WIyWlLk6GJQsqaUBKTNV-1">
          <mxGeometry x="220" y="510" width="130" height="20" as="geometry" />
        </mxCell>
        <mxCell id="sXSF4Zg0YILGbZPlJULw-31" value="task.html" style="text;html=1;align=center;verticalAlign=middle;whiteSpace=wrap;rounded=0;fontColor=#FF0000;" vertex="1" parent="WIyWlLk6GJQsqaUBKTNV-1">
          <mxGeometry x="450" y="500" width="130" height="20" as="geometry" />
        </mxCell>
        <mxCell id="sXSF4Zg0YILGbZPlJULw-32" value="form_edit_task.html" style="text;html=1;align=center;verticalAlign=middle;whiteSpace=wrap;rounded=0;fontColor=#FF0000;" vertex="1" parent="WIyWlLk6GJQsqaUBKTNV-1">
          <mxGeometry x="350" y="680" width="130" height="20" as="geometry" />
        </mxCell>
        <mxCell id="sXSF4Zg0YILGbZPlJULw-33" value="form_add_owner.html" style="text;html=1;align=center;verticalAlign=middle;whiteSpace=wrap;rounded=0;fontColor=#FF0000;" vertex="1" parent="WIyWlLk6GJQsqaUBKTNV-1">
          <mxGeometry x="600" y="680" width="130" height="20" as="geometry" />
        </mxCell>
        <mxCell id="sXSF4Zg0YILGbZPlJULw-37" value="" style="endArrow=classic;html=1;rounded=0;exitX=0;exitY=0.75;exitDx=0;exitDy=0;strokeWidth=2;entryX=1;entryY=0.75;entryDx=0;entryDy=0;" edge="1" parent="WIyWlLk6GJQsqaUBKTNV-1" source="sXSF4Zg0YILGbZPlJULw-2" target="sXSF4Zg0YILGbZPlJULw-3">
          <mxGeometry width="50" height="50" relative="1" as="geometry">
            <mxPoint x="481" y="460" as="sourcePoint" />
            <mxPoint x="261" y="344" as="targetPoint" />
          </mxGeometry>
        </mxCell>
      </root>
    </mxGraphModel>
  </diagram>
</mxfile>
